HIERARCHY
ROOT hip
{
  OFFSET 0 0 0
  CHANNELS 6 Xposition Yposition Zposition Zrotation Yrotation Xrotation
  JOINT abdomen
  {
    OFFSET 0 20.6881 -0.73152
    CHANNELS 3 Zrotation Xrotation Yrotation
    JOINT chest
    {
      OFFSET 0 11.7043 -0.48768
      CHANNELS 3 Zrotation Xrotation Yrotation
      JOINT neck
      {
        OFFSET 0 22.1894 -2.19456
        CHANNELS 3 Zrotation Xrotation Yrotation
        JOINT head
        {
          OFFSET -0.24384 7.07133 1.2192
          CHANNELS 3 Zrotation Xrotation Yrotation
          JOINT leftEye
          {
            OFFSET 4.14528 8.04674 8.04672
            CHANNELS 3 Zrotation Xrotation Yrotation
            End Site
            {
              OFFSET 1 0 0
            }
          }
          JOINT rightEye
          {
            OFFSET -3.6576 8.04674 8.04672
            CHANNELS 3 Zrotation Xrotation Yrotation
            End Site
            {
              OFFSET 1 0 0
            }
          }
        }
      }
      JOINT rCollar
      {
        OFFSET -2.68224 19.2634 -4.8768
        CHANNELS 3 Zrotation Xrotation Yrotation
        JOINT rShldr
        {
          OFFSET -8.77824 -1.95073 1.46304
          CHANNELS 3 Zrotation Xrotation Yrotation
          JOINT rForeArm
          {
            OFFSET -28.1742 -1.7115 0.48768
            CHANNELS 3 Zrotation Xrotation Yrotation
            JOINT rHand
            {
              OFFSET -22.5879 0.773209 7.07136
              CHANNELS 3 Zrotation Xrotation Yrotation
              JOINT rThumb1
              {
                OFFSET -1.2192 -0.487915 3.41376
                CHANNELS 3 Zrotation Xrotation Yrotation
                JOINT rThumb2
                {
                  OFFSET -3.37035 -0.52449 3.41376
                  CHANNELS 3 Zrotation Xrotation Yrotation
                  End Site
                  {
                    OFFSET -1.78271 -1.18214 1.43049
                  }
                }
              }
              JOINT rIndex1
              {
                OFFSET -7.75947 0.938293 5.60832
                CHANNELS 3 Zrotation Xrotation Yrotation
                JOINT rIndex2
                {
                  OFFSET -2.54057 -0.884171 1.56538
                  CHANNELS 3 Zrotation Xrotation Yrotation
                  End Site
                  {
                    OFFSET -1.62519 -0.234802 1.16502
                  }
                }
              }
              JOINT rMid1
              {
                OFFSET -8.24714 1.18213 3.41376
                CHANNELS 3 Zrotation Xrotation Yrotation
                JOINT rMid2
                {
                  OFFSET -3.10165 -0.590103 1.0647
                  CHANNELS 3 Zrotation Xrotation Yrotation
                  End Site
                  {
                    OFFSET -2.48547 -0.328903 0.83742
                  }
                }
              }
              JOINT rRing1
              {
                OFFSET -8.82822 0.546677 1.51678
                CHANNELS 3 Zrotation Xrotation Yrotation
                JOINT rRing2
                {
                  OFFSET -2.60934 -0.819778 -0.0198488
                  CHANNELS 3 Zrotation Xrotation Yrotation
                  End Site
                  {
                    OFFSET -2.33842 -0.294052 0.168128
                  }
                }
              }
              JOINT rPinky1
              {
                OFFSET -8.27202 -0.0477905 -0.4584
                CHANNELS 3 Zrotation Xrotation Yrotation
                JOINT rPinky2
                {
                  OFFSET -1.82734 -0.647385 -0.700984
                  CHANNELS 3 Zrotation Xrotation Yrotation
                  End Site
                  {
                    OFFSET -1.69225 -0.51767 -0.607171
                  }
                }
              }
            }
          }
        }
      }
      JOINT lCollar
      {
        OFFSET 2.68224 19.2634 -4.8768
        CHANNELS 3 Zrotation Xrotation Yrotation
        JOINT lShldr
        {
          OFFSET 8.77824 -1.95073 1.46304
          CHANNELS 3 Zrotation Xrotation Yrotation
          JOINT lForeArm
          {
            OFFSET 28.1742 -1.7115 0.48768
            CHANNELS 3 Zrotation Xrotation Yrotation
            JOINT lHand
            {
              OFFSET 22.5879 0.773209 7.07136
              CHANNELS 3 Zrotation Xrotation Yrotation
              JOINT lThumb1
              {
                OFFSET 1.2192 -0.487915 3.41376
                CHANNELS 3 Zrotation Xrotation Yrotation
                JOINT lThumb2
                {
                  OFFSET 3.37035 -0.52449 3.41376
                  CHANNELS 3 Zrotation Xrotation Yrotation
                  End Site
                  {
                    OFFSET 1.78271 -1.18214 1.43049
                  }
                }
              }
              JOINT lIndex1
              {
                OFFSET 7.75947 0.938293 5.60832
                CHANNELS 3 Zrotation Xrotation Yrotation
                JOINT lIndex2
                {
                  OFFSET 2.54057 -0.884171 1.56538
                  CHANNELS 3 Zrotation Xrotation Yrotation
                  End Site
                  {
                    OFFSET 1.62519 -0.234802 1.16502
                  }
                }
              }
              JOINT lMid1
              {
                OFFSET 8.24714 1.18213 3.41376
                CHANNELS 3 Zrotation Xrotation Yrotation
                JOINT lMid2
                {
                  OFFSET 3.10165 -0.590103 1.0647
                  CHANNELS 3 Zrotation Xrotation Yrotation
                  End Site
                  {
                    OFFSET 2.48547 -0.328903 0.83742
                  }
                }
              }
              JOINT lRing1
              {
                OFFSET 8.82822 0.546677 1.51678
                CHANNELS 3 Zrotation Xrotation Yrotation
                JOINT lRing2
                {
                  OFFSET 2.60934 -0.819778 -0.0198488
                  CHANNELS 3 Zrotation Xrotation Yrotation
                  End Site
                  {
                    OFFSET 2.33842 -0.294052 0.168128
                  }
                }
              }
              JOINT lPinky1
              {
                OFFSET 8.27202 -0.0477905 -0.4584
                CHANNELS 3 Zrotation Xrotation Yrotation
                JOINT lPinky2
                {
                  OFFSET 1.82734 -0.647385 -0.700984
                  CHANNELS 3 Zrotation Xrotation Yrotation
                  End Site
                  {
                    OFFSET 1.69225 -0.51767 -0.607171
                  }
                }
              }
            }
          }
        }
      }
    }
  }
  JOINT rButtock
  {
    OFFSET -8.77824 4.35084 1.2192
    CHANNELS 3 Zrotation Xrotation Yrotation
    JOINT rThigh
    {
      OFFSET 0 -1.70687 -2.19456
      CHANNELS 3 Zrotation Xrotation Yrotation
      JOINT rShin
      {
        OFFSET 0 -36.8199 0.73152
        CHANNELS 3 Zrotation Xrotation Yrotation
        JOINT rFoot
        {
          OFFSET 0.73152 -45.1104 -5.12064
          CHANNELS 3 Zrotation Xrotation Yrotation
          End Site
          {
            OFFSET -1.1221 -3.69964 12.103
          }
        }
      }
    }
  }
  JOINT lButtock
  {
    OFFSET 8.77824 4.35084 1.2192
    CHANNELS 3 Zrotation Xrotation Yrotation
    JOINT lThigh
    {
      OFFSET 0 -1.70687 -2.19456
      CHANNELS 3 Zrotation Xrotation Yrotation
      JOINT lShin
      {
        OFFSET 0 -36.8199 0.73152
        CHANNELS 3 Zrotation Xrotation Yrotation
        JOINT lFoot
        {
          OFFSET -0.73152 -45.1104 -5.12064
          CHANNELS 3 Zrotation Xrotation Yrotation
          End Site
          {
            OFFSET 1.1221 -3.69964 12.103
          }
        }
      }
    }
  }
}
MOTION
Frames:	4
Frame Time:	0.03333
0.0 0.0 0.0 0.0 0.0 0.0 0.0 0.0 0.0 0.0 0.0 0.0 0.0 0.0 0.0 0.0 0.0 0.0 0.0 0.0 0.0 0.0 0.0 0.0 0.0 0.0 0.0 0.0 0.0 0.0 0.0 0.0 0.0 0.0 0.0 0.0 0.0 0.0 0.0 0.0 0.0 0.0 0.0 0.0 0.0 0.0 0.0 0.0 0.0 0.0 0.0 0.0 0.0 0.0 0.0 0.0 0.0 0.0 0.0 0.0 0.0 0.0 0.0 0.0 0.0 0.0 0.0 0.0 0.0 0.0 0.0 0.0 0.0 0.0 0.0 0.0 0.0 0.0 0.0 0.0 0.0 0.0 0.0 0.0 0.0 0.0 0.0 0.0 0.0 0.0 0.0 0.0 0.0 0.0 0.0 0.0 0.0 0.0 0.0 0.0 0.0 0.0 0.0 0.0 0.0 0.0 0.0 0.0 0.0 0.0 0.0 0.0 0.0 0.0 0.0 0.0 0.0 0.0 0.0 0.0 0.0 0.0 0.0 0.0 0.0 0.0 0.0 0.0 0.0 0.0 0.0 0.0
0.1037 59.7951 -0.0362 -0.238386 6.92644 -1.118111 0.053137 -0.833801 -176.353455 4.856417 -11.162575 -150.801448 8.77745 -10.584225 101.987993 -43.431785 0.38881 -81.422926 -140.084233 -15.533566 -41.171734 -45.835937 17.105345 -39.162373 -77.165094 -28.925169 170.159968 -158.254193 -1.612372 171.929143 -8.337513 -5.150688 158.956452 18.166557 -36.475417 -37.924464 84.982198 -15.956247 31.05708 42.880562 34.691078 73.89743 -161.826798 53.738947 142.845651 -170.176218 15.078496 9.317777 174.288265 -27.409234 -149.694138 -11.70332 42.632431 -142.884142 83.945377 -6.233013 -79.605804 42.154121 18.984837 50.906035 32.831849 -3.992825 -43.992564 -145.611649 23.921345 -118.022848 -39.139163 46.043181 -25.647372 -22.16354 3.569335 -20.105514 57.886652 -88.695535 -100.583156 -58.756858 -60.750981 22.817453 175.868567 -4.63374 -45.134862 -46.816891 -48.284161 -17.832472 154.127295 4.500737 -54.691468 139.580711 -10.780459 -96.685762 118.682177 49.670968 -60.947586 -26.633934 -61.788835 -88.968728 -90.064124 6.221536 -172.469395 -3.13822 -49.468952 -130.125324 123.831476 -7.767798 52.472599 -157.9186 1.152434 148.55856 -21.674084 -42.31665 -30.55451 2.236852 44.42981 180.0 1.124586 1.520992 -152.450403 -64.557469 -23.430646 112.971989 -57.833537 0.079426 -90.033428 -1.359108 55.707269 -178.355072 7.902958 -2.832732 82.911504 -79.733591 -12.356587 96.298975
-0.7197 57.7941 -0.0335 2.922247 27.875837 12.077433 -6.049091 14.874528 1.313812 1.809809 -10.192934 -2.441409 -7.774122 19.741764 7.829382 6.094429 -40.706513 -29.25693 -7.774926 -0.480614 7.063783 3.488924 0.521233 16.988834 -129.560096 52.119091 129.280306 155.296175 5.22856 151.323966 17.972412 35.220436 85.406811 -14.119822 34.673471 -7.728365 -166.970777 5.14195 85.571195 -87.356448 -9.91833 18.678057 -143.524668 -3.973008 124.067049 -170.081504 57.514078 139.726369 -32.848202 49.472533 37.937123 142.224397 -74.535006 127.794754 28.389902 -2.593674 0.12648 109.644647 -86.92622 132.792138 -124.008693 55.880041 -177.604026 134.981926 70.421556 -120.528322 3.735354 0.85219 0.948909 -5.362595 70.598701 -84.206533 -5.795209 -45.672846 -101.098201 8.675155 -3.00446 4.31221 167.122425 -12.276899 -84.685055 -175.10621 -32.626494 -82.156986 11.561618 1.983446 9.126713 176.390517 -26.168363 -92.908914 124.87187 80.166793 -94.148033 166.63629 25.717696 -108.388713 9.155499 -0.564373 -2.823322 152.186867 -2.20208 -168.342064 103.22461 -18.194694 119.497684 105.574254 10.474101 -175.053663 -0.016814 2.547608 0.378272 -64.891611 -61.080005 -67.697797 -26.191938 81.654315 94.878324 -64.812026 48.159667 -18.755617 7.178807 1.419475 14.731782 15.01901 -34.349419 -20.490409 -60.76213 51.016273 -21.260871 23.980346 76.146425 79.00361
-1.9721 59.80649999999999 0.369 2.705188 34.844344 15.629531 -5.189091 14.892046 -160.538207 1.171777 8.884324 159.017075 -4.156678 41.02146 -173.627404 11.488969 67.575387 135.904058 4.056056 1.125786 31.013335 -3.705601 -0.386306 11.899011 -155.99277 -3.249427 161.268194 -100.543536 -68.818499 -83.290018 128.064172 -59.141308 -130.339496 -22.452806 43.423013 2.627942 179.284762 -9.058005 85.043661 -106.10917 11.57048 35.153005 17.032405 -13.344124 -8.783409 -164.934384 -0.292378 98.215922 -157.896606 -32.535539 150.325285 -0.791983 42.254707 7.438922 -135.35244 1.065961 179.635277 -96.349444 25.23337 147.154649 -110.145395 -38.423507 -105.091945 -44.978302 -48.565454 -46.026333 151.979498 27.354894 -149.403153 -126.842158 5.27534 -153.160591 74.801182 -31.528026 -106.454931 -133.878629 -76.929932 -109.187484 -3.903076 2.1545 -6.474929 97.629833 25.372197 -66.47701 172.216343 -31.380944 -115.682039 -8.503855 22.83005 -3.778414 94.641761 73.669025 -82.017652 73.469742 40.531871 -31.732481 1.810324 -2.146888 -4.47917 2.988704 14.007868 2.119667 -7.334656 -39.649237 39.515961 13.481552 -46.422636 -71.755535 135.219837 75.17168 30.453788 166.829275 7.020175 119.539726 96.123612 -38.451865 112.13983 27.81026 15.742715 163.104471 3.339462 10.876838 4.19778 32.707645 -42.361624 23.894051 -33.366696 77.446243 -108.373918 32.276612 19.348038 144.558443
